<svg width="15" height="15" viewBox="0 0 15 15" fill="none" xmlns="http://www.w3.org/2000/svg">
<path d="M12.1875 2.34315H2.8125C2.03585 2.34315 1.40625 2.97275 1.40625 3.7494V12.1869C1.40625 12.9636 2.03585 13.5932 2.8125 13.5932H12.1875C12.9641 13.5932 13.5937 12.9636 13.5937 12.1869V3.7494C13.5937 2.97275 12.9641 2.34315 12.1875 2.34315Z" fill="white" stroke="#2D3748" stroke-width="0.75" stroke-linejoin="round"/>
<path d="M11.6549 2.34315H3.34512C2.27607 2.34315 1.40625 3.22646 1.40625 4.3119V6.09316H1.875C1.875 5.62441 2.34375 5.15566 2.8125 5.15566H12.1875C12.6562 5.15566 13.125 5.62441 13.125 6.09316H13.5937V4.3119C13.5937 3.22646 12.7239 2.34315 11.6549 2.34315Z" fill="#2D3748"/>
<path d="M8.67184 7.49939C9.06017 7.49939 9.37497 7.18459 9.37497 6.79626C9.37497 6.40794 9.06017 6.09314 8.67184 6.09314C8.28352 6.09314 7.96872 6.40794 7.96872 6.79626C7.96872 7.18459 8.28352 7.49939 8.67184 7.49939Z" fill="#2D3748"/>
<path d="M11.0156 7.49939C11.4039 7.49939 11.7187 7.18459 11.7187 6.79626C11.7187 6.40794 11.4039 6.09314 11.0156 6.09314C10.6273 6.09314 10.3125 6.40794 10.3125 6.79626C10.3125 7.18459 10.6273 7.49939 11.0156 7.49939Z" fill="#2D3748"/>
<path d="M8.67184 9.8427C9.06017 9.8427 9.37497 9.5279 9.37497 9.13957C9.37497 8.75125 9.06017 8.43645 8.67184 8.43645C8.28352 8.43645 7.96872 8.75125 7.96872 9.13957C7.96872 9.5279 8.28352 9.8427 8.67184 9.8427Z" fill="#2D3748"/>
<path d="M11.0156 9.8427C11.4039 9.8427 11.7187 9.5279 11.7187 9.13957C11.7187 8.75125 11.4039 8.43645 11.0156 8.43645C10.6273 8.43645 10.3125 8.75125 10.3125 9.13957C10.3125 9.5279 10.6273 9.8427 11.0156 9.8427Z" fill="#2D3748"/>
<path d="M3.98437 9.8427C4.3727 9.8427 4.6875 9.5279 4.6875 9.13957C4.6875 8.75125 4.3727 8.43645 3.98437 8.43645C3.59605 8.43645 3.28125 8.75125 3.28125 9.13957C3.28125 9.5279 3.59605 9.8427 3.98437 9.8427Z" fill="#2D3748"/>
<path d="M6.32809 9.8427C6.71642 9.8427 7.03122 9.5279 7.03122 9.13957C7.03122 8.75125 6.71642 8.43645 6.32809 8.43645C5.93977 8.43645 5.62497 8.75125 5.62497 9.13957C5.62497 9.5279 5.93977 9.8427 6.32809 9.8427Z" fill="#2D3748"/>
<path d="M3.98437 12.1869C4.3727 12.1869 4.6875 11.8721 4.6875 11.4838C4.6875 11.0955 4.3727 10.7807 3.98437 10.7807C3.59605 10.7807 3.28125 11.0955 3.28125 11.4838C3.28125 11.8721 3.59605 12.1869 3.98437 12.1869Z" fill="#2D3748"/>
<path d="M6.32809 12.1869C6.71642 12.1869 7.03122 11.8721 7.03122 11.4838C7.03122 11.0955 6.71642 10.7807 6.32809 10.7807C5.93977 10.7807 5.62497 11.0955 5.62497 11.4838C5.62497 11.8721 5.93977 12.1869 6.32809 12.1869Z" fill="#2D3748"/>
<path d="M8.67184 12.1869C9.06017 12.1869 9.37497 11.8721 9.37497 11.4838C9.37497 11.0955 9.06017 10.7807 8.67184 10.7807C8.28352 10.7807 7.96872 11.0955 7.96872 11.4838C7.96872 11.8721 8.28352 12.1869 8.67184 12.1869Z" fill="#2D3748"/>
<path d="M3.74991 1.40559V2.34309" stroke="#2D3748" stroke-width="0.75" stroke-linecap="round" stroke-linejoin="round"/>
<path d="M11.25 1.40559V2.34309" stroke="#2D3748" stroke-width="0.75" stroke-linecap="round" stroke-linejoin="round"/>
</svg>
