<svg width="12" height="12" viewBox="0 0 12 12" fill="none" xmlns="http://www.w3.org/2000/svg">
<g clip-path="url(#clip0_580_2882)">
<path d="M10.838 3.08686C10.8132 3.03872 10.7774 2.99711 10.7336 2.96541C10.6897 2.93371 10.6389 2.91282 10.5855 2.90444C10.532 2.89607 10.4773 2.90044 10.4258 2.91721C10.3743 2.93397 10.3275 2.96266 10.2893 3.00092L8.96926 4.32178C8.90446 4.38564 8.81714 4.42144 8.72616 4.42144C8.63518 4.42144 8.54786 4.38564 8.48306 4.32178L7.91244 3.7503C7.88051 3.71838 7.85518 3.68048 7.8379 3.63877C7.82062 3.59706 7.81173 3.55235 7.81173 3.5072C7.81173 3.46206 7.82062 3.41735 7.8379 3.37564C7.85518 3.33393 7.88051 3.29603 7.91244 3.26411L9.22685 1.94948C9.26626 1.91008 9.29549 1.8617 9.31204 1.80849C9.32859 1.75528 9.33196 1.69885 9.32185 1.64405C9.31175 1.58926 9.28847 1.53774 9.25403 1.49394C9.21959 1.45013 9.17502 1.41536 9.12416 1.39261C8.13136 0.948738 6.89215 1.18034 6.11076 1.95593C5.44689 2.61507 5.24902 3.64503 5.56828 4.78176C5.58549 4.84238 5.58559 4.90658 5.56857 4.96725C5.55154 5.02793 5.51805 5.0827 5.47182 5.12551L1.8951 8.39221C1.75576 8.51732 1.64337 8.6695 1.56478 8.83947C1.48619 9.00944 1.44306 9.19364 1.438 9.38084C1.43295 9.56803 1.46608 9.75429 1.53538 9.92826C1.60468 10.1022 1.7087 10.2602 1.84108 10.3927C1.97347 10.5251 2.13144 10.6292 2.30538 10.6986C2.47932 10.768 2.66556 10.8012 2.85276 10.7962C3.03995 10.7912 3.22417 10.7482 3.39418 10.6697C3.56418 10.5912 3.71642 10.4788 3.84158 10.3396L7.1433 6.75489C7.1855 6.70925 7.23935 6.67598 7.29905 6.65868C7.35875 6.64138 7.42204 6.6407 7.48211 6.6567C7.80574 6.74538 8.13956 6.79139 8.47511 6.79356C9.19269 6.79356 9.8224 6.56131 10.2766 6.11379C11.1177 5.28514 11.246 3.87964 10.838 3.08686ZM2.88746 10.1043C2.74597 10.1197 2.60316 10.0909 2.47876 10.0217C2.35436 9.95255 2.2545 9.84648 2.19295 9.71813C2.13141 9.58979 2.11122 9.44551 2.13516 9.3052C2.15911 9.16489 2.22601 9.03548 2.32664 8.93481C2.42727 8.83415 2.55666 8.7672 2.69696 8.7432C2.83726 8.71921 2.98155 8.73935 3.10992 8.80085C3.23828 8.86235 3.34439 8.96218 3.41361 9.08655C3.48282 9.21093 3.51172 9.35372 3.49633 9.49522C3.47939 9.65091 3.4098 9.79615 3.29908 9.90691C3.18836 10.0177 3.04315 10.0873 2.88746 10.1043Z" fill="white"/>
</g>
<defs>
<clipPath id="clip0_580_2882">
<rect width="11" height="11" fill="white" transform="translate(0.749756 0.497192)"/>
</clipPath>
</defs>
</svg>
