<svg width="20" height="20" viewBox="0 0 20 20" fill="none" xmlns="http://www.w3.org/2000/svg">
<g clip-path="url(#clip0_580_3803)">
<path d="M3.54167 0.5H16.4583C18.4167 0.5 20 2.08333 20 4.04167V16.4583C20 18.4167 18.4167 20 16.4583 20H3.54167C1.58333 20 0 18.4167 0 16.4583V4.04167C0 2.08333 1.58333 0.5 3.54167 0.5Z" fill="#470137"/>
<path d="M10.5168 5.625L8.01684 9.75L10.6835 14.125C10.7002 14.1583 10.7085 14.1917 10.7002 14.225C10.6918 14.2583 10.6585 14.2333 10.6085 14.2417H8.70018C8.56684 14.2417 8.47518 14.2333 8.41684 14.15C8.24184 13.8 8.05851 13.4583 7.88351 13.1083C7.70851 12.7667 7.51684 12.4167 7.31684 12.0583C7.11684 11.7 6.91684 11.3417 6.71684 10.975H6.70018C6.52518 11.3333 6.33351 11.6917 6.14184 12.05C5.95018 12.4083 5.75851 12.7667 5.57518 13.1167C5.38351 13.4667 5.19184 13.825 5.00018 14.1667C4.96684 14.25 4.90018 14.2583 4.80851 14.2583H2.97518C2.94184 14.2583 2.91684 14.275 2.91684 14.2333C2.90851 14.2 2.91684 14.1667 2.93351 14.1417L5.52518 9.89167L3.00018 5.61667C2.97518 5.58333 2.96684 5.55 2.98351 5.53333C3.00018 5.50833 3.03351 5.5 3.06684 5.5H4.95851C5.00018 5.5 5.04184 5.50833 5.07518 5.51667C5.10851 5.53333 5.13351 5.55833 5.15851 5.59167C5.31684 5.95 5.50018 6.30833 5.69184 6.66667C5.89184 7.025 6.08351 7.375 6.29184 7.725C6.49184 8.075 6.67518 8.425 6.85018 8.78333H6.86684C7.04184 8.41667 7.22518 8.05833 7.40851 7.70833C7.59184 7.35833 7.78351 7.00833 7.97518 6.65833C8.16684 6.30833 8.35018 5.95 8.53351 5.60833C8.54184 5.575 8.55851 5.54167 8.58351 5.525C8.61684 5.50833 8.65018 5.5 8.69184 5.50833H10.4502C10.4918 5.5 10.5335 5.525 10.5418 5.56667C10.5502 5.575 10.5335 5.60833 10.5168 5.625Z" fill="#FF61F6"/>
<path d="M14.367 14.4166C13.7504 14.425 13.1337 14.3 12.5754 14.0416C12.0504 13.8 11.617 13.4 11.317 12.9083C11.0087 12.4 10.8587 11.7666 10.8587 11.0083C10.8504 10.3916 11.0087 9.78331 11.317 9.24998C11.6337 8.70831 12.092 8.25831 12.642 7.95831C13.2254 7.63331 13.9254 7.47498 14.7504 7.47498C14.792 7.47498 14.8504 7.47498 14.9254 7.48331C15.0004 7.49164 15.0837 7.49164 15.1837 7.49998V4.86664C15.1837 4.80831 15.2087 4.77498 15.267 4.77498H16.9587C17.0004 4.76664 17.0337 4.79998 17.042 4.83331C17.042 4.84164 17.042 4.84998 17.042 4.84998V12.7833C17.042 12.9333 17.0504 13.1 17.0587 13.2833C17.0754 13.4583 17.0837 13.625 17.092 13.7666C17.092 13.825 17.067 13.875 17.0087 13.9C16.5754 14.0833 16.117 14.2166 15.6504 14.3C15.2254 14.375 14.8004 14.4166 14.367 14.4166ZM15.1837 12.75V9.08331C15.1087 9.06664 15.0337 9.04998 14.9587 9.04164C14.867 9.03331 14.7754 9.02498 14.6837 9.02498C14.3587 9.02498 14.0337 9.09164 13.742 9.24164C13.4587 9.38331 13.217 9.59164 13.0337 9.85831C12.8504 10.125 12.7587 10.4833 12.7587 10.9166C12.7504 11.2083 12.8004 11.5 12.9004 11.775C12.9837 12 13.1087 12.2 13.2754 12.3666C13.4337 12.5166 13.6254 12.6333 13.842 12.7C14.067 12.775 14.3004 12.8083 14.5337 12.8083C14.6587 12.8083 14.7754 12.8 14.8837 12.7916C14.992 12.8 15.0837 12.7833 15.1837 12.75Z" fill="#FF61F6"/>
</g>
<defs>
<clipPath id="clip0_580_3803">
<rect width="20" height="19.5" fill="white" transform="translate(0 0.5)"/>
</clipPath>
</defs>
</svg>
